# xmcd
#
# Track frame offsets:
#	150
#	16294
#	26439
#	41414
#	53973
#	64764
#	77928
#	93022
#	108530
#	123983
#	136473
#	151778
#	166816
#	179919
#	191956
#	203388
#	219447
#	233153
#
# Disc length: 3256
#
# Revision: 3
# Processed by: cddbd v1.5.1PL0 Copyright (c) Steve Scherf et al.
# Submitted via: dBpowerAMP V4.0
# Normalized: r1:TSWAP
#
DISCID=ef0cb612
DTITLE=Various Artist - Selection of Country Love Songs
DYEAR=1900
DGENRE=Country
TTITLE0=Randy Vanwarmer - Just When I Needed You Most
TTITLE1=Ricky Nelson - Never Been Anyone Else But You
TTITLE2=Tony Orlando and Dawn - Tie A Yellow Ribbon 'Round The Ole Oak Tree
TTITLE3=Crystal Gayle - Crazy
TTITLE4=Patsy Cline - I Can See An Angel
TTITLE5=Dottie West - D.I.V.O.R.C.E.
TTITLE6=Roy Clark - Yesterday When I Was Young
TTITLE7=Crystal Gayle - When I Dream
TTITLE8=Jo Anne Houston - Always On My Mind
TTITLE9=Johnny Cash - I Walk The Line
TTITLE10=Crystal Gayle - Ready For The Times To Get Better
TTITLE11=Billie Jo Spears - Crystal Chandeliers
TTITLE12=Loretta Lynn - Let Your Love Flow
TTITLE13=Billie Jo Spears - Misty Blue
TTITLE14=The Kendalls - Heaven's Just A Sin Away
TTITLE15=Brenda Lee - Comin' On Strong
TTITLE16=The Kendalls - Heartaches By The Number
TTITLE17=Conway Twitty - Have I Been Away Too Long
EXTD=
EXTT0=
EXTT1=
EXTT2=
EXTT3=
EXTT4=
EXTT5=
EXTT6=
EXTT7=
EXTT8=
EXTT9=
EXTT10=
EXTT11=
EXTT12=
EXTT13=
EXTT14=
EXTT15=
EXTT16=
EXTT17=
PLAYORDER=
